<svg width="44" height="44" viewBox="0 0 44 44" fill="none" xmlns="http://www.w3.org/2000/svg">
<g filter="url(#filter0_d_146_278)">
<path d="M13.3636 17.803C13.0707 17.5101 12.5959 17.5101 12.303 17.803C12.0101 18.0959 12.0101 18.5708 12.303 18.8637L13.3636 17.803ZM22 27.5L21.4696 28.0303C21.6103 28.171 21.8011 28.25 22 28.25C22.1989 28.25 22.3897 28.171 22.5303 28.0303L22 27.5ZM31.697 18.8637C31.9899 18.5708 31.9899 18.0959 31.697 17.803C31.4041 17.5101 30.9292 17.5101 30.6363 17.803L31.697 18.8637ZM12.303 18.8637L21.4696 28.0303L22.5303 26.9697L13.3636 17.803L12.303 18.8637ZM22.5303 28.0303L31.697 18.8637L30.6363 17.803L21.4696 26.9697L22.5303 28.0303Z" fill="#202C39"/>
</g>
<defs>
<filter id="filter0_d_146_278" x="-4" y="0" width="52" height="52" filterUnits="userSpaceOnUse" color-interpolation-filters="sRGB">
<feFlood flood-opacity="0" result="BackgroundImageFix"/>
<feColorMatrix in="SourceAlpha" type="matrix" values="0 0 0 0 0 0 0 0 0 0 0 0 0 0 0 0 0 0 127 0" result="hardAlpha"/>
<feOffset dy="4"/>
<feGaussianBlur stdDeviation="2"/>
<feComposite in2="hardAlpha" operator="out"/>
<feColorMatrix type="matrix" values="0 0 0 0 0 0 0 0 0 0 0 0 0 0 0 0 0 0 0.25 0"/>
<feBlend mode="normal" in2="BackgroundImageFix" result="effect1_dropShadow_146_278"/>
<feBlend mode="normal" in="SourceGraphic" in2="effect1_dropShadow_146_278" result="shape"/>
</filter>
</defs>
</svg>
